<?xml version="1.0" standalone="no"?>
<!DOCTYPE svg PUBLIC "-//W3C//DTD SVG 20010904//EN"
 "http://www.w3.org/TR/2001/REC-SVG-20010904/DTD/svg10.dtd">
<svg version="1.0" xmlns="http://www.w3.org/2000/svg"
 width="300.000000pt" height="273.000000pt" viewBox="0 0 300.000000 273.000000"
 preserveAspectRatio="xMidYMid meet">
<metadata>
Created by potrace 1.10, written by Peter Selinger 2001-2011
</metadata>
<g transform="translate(0.000000,273.000000) scale(0.100000,-0.100000)"
fill="#000000" stroke="none">
<path d="M1415 2625 c-246 -46 -447 -155 -620 -337 -90 -93 -136 -159 -194
-274 -79 -161 -114 -310 -114 -494 -1 -368 164 -693 461 -912 189 -140 415
-212 662 -211 313 1 569 109 791 332 101 102 150 169 212 291 236 468 101
1059 -316 1381 -114 88 -279 170 -412 205 -127 33 -346 42 -470 19z m449 -124
c165 -44 336 -143 457 -263 209 -209 308 -466 296 -763 -11 -271 -105 -484
-296 -676 -183 -182 -401 -280 -656 -296 -600 -36 -1103 463 -1071 1062 13
252 103 464 273 645 157 167 340 265 583 313 14 3 95 4 180 2 119 -2 173 -7
234 -24z"/>
<path d="M997 1943 c-4 -3 -7 -24 -7 -45 l0 -38 175 0 175 0 0 -277 c0 -254
-2 -282 -20 -321 -46 -102 -207 -108 -296 -10 l-36 40 -34 -33 -34 -34 31 -38
c17 -21 54 -50 83 -65 45 -24 62 -27 146 -27 108 0 154 17 208 79 57 65 62
104 62 458 l0 318 -223 0 c-123 0 -227 -3 -230 -7z"/>
<path d="M1720 1525 l0 -428 178 5 c148 5 186 9 233 27 210 80 214 356 6 412
l-41 11 50 26 c68 37 97 93 92 179 -5 82 -40 128 -123 161 -50 20 -81 24 -226
29 l-169 6 0 -428z m357 304 c56 -27 75 -78 52 -142 -25 -72 -82 -96 -226 -97
l-83 0 0 128 c0 71 3 132 8 137 14 15 204 -4 249 -26z m0 -344 c75 -22 103
-60 103 -136 0 -53 -3 -63 -33 -95 -40 -44 -113 -64 -239 -64 l-88 0 0 155 0
155 103 0 c63 0 123 -6 154 -15z"/>
</g>
</svg>
